REM MD5 749ffd959e913156d25ac6c1c704681d
FILE "Street Fighter Collection (Japan) (Disc 1).bin" BINARY
  TRACK 01 MODE2/2352
    INDEX 01 00:00:00
  TRACK 02 AUDIO
    INDEX 00 05:09:42
    INDEX 01 05:11:42
  TRACK 03 AUDIO
    INDEX 00 06:25:44
    INDEX 01 06:27:44
  TRACK 04 AUDIO
    INDEX 00 08:13:22
    INDEX 01 08:15:22
  TRACK 05 AUDIO
    INDEX 00 10:22:59
    INDEX 01 10:24:59
  TRACK 06 AUDIO
    INDEX 00 12:17:19
    INDEX 01 12:19:19
  TRACK 07 AUDIO
    INDEX 00 14:17:68
    INDEX 01 14:19:68
  TRACK 08 AUDIO
    INDEX 00 16:13:35
    INDEX 01 16:15:35
  TRACK 09 AUDIO
    INDEX 00 17:27:48
    INDEX 01 17:29:48
  TRACK 10 AUDIO
    INDEX 00 19:22:29
    INDEX 01 19:24:29
  TRACK 11 AUDIO
    INDEX 00 21:17:02
    INDEX 01 21:19:02
  TRACK 12 AUDIO
    INDEX 00 23:15:01
    INDEX 01 23:17:01
  TRACK 13 AUDIO
    INDEX 00 24:43:39
    INDEX 01 24:45:39
  TRACK 14 AUDIO
    INDEX 00 27:00:47
    INDEX 01 27:02:47
  TRACK 15 AUDIO
    INDEX 00 28:23:30
    INDEX 01 28:25:30
  TRACK 16 AUDIO
    INDEX 00 30:21:15
    INDEX 01 30:23:15
  TRACK 17 AUDIO
    INDEX 00 31:45:05
    INDEX 01 31:47:05
  TRACK 18 AUDIO
    INDEX 00 33:13:45
    INDEX 01 33:15:45
  TRACK 19 AUDIO
    INDEX 00 34:33:47
    INDEX 01 34:35:47
  TRACK 20 AUDIO
    INDEX 00 35:05:36
    INDEX 01 35:07:36
  TRACK 21 AUDIO
    INDEX 00 35:37:28
    INDEX 01 35:39:28
  TRACK 22 AUDIO
    INDEX 00 36:09:29
    INDEX 01 36:11:29
  TRACK 23 AUDIO
    INDEX 00 36:41:30
    INDEX 01 36:43:30
  TRACK 24 AUDIO
    INDEX 00 37:13:31
    INDEX 01 37:15:31
  TRACK 25 AUDIO
    INDEX 00 37:45:31
    INDEX 01 37:47:31
  TRACK 26 AUDIO
    INDEX 00 38:17:32
    INDEX 01 38:19:32
  TRACK 27 AUDIO
    INDEX 00 38:49:33
    INDEX 01 38:51:33
  TRACK 28 AUDIO
    INDEX 00 39:21:33
    INDEX 01 39:23:33
  TRACK 29 AUDIO
    INDEX 00 39:53:34
    INDEX 01 39:55:34
  TRACK 30 AUDIO
    INDEX 00 40:25:35
    INDEX 01 40:27:35
  TRACK 31 AUDIO
    INDEX 00 40:57:36
    INDEX 01 40:59:36
  TRACK 32 AUDIO
    INDEX 00 41:29:37
    INDEX 01 41:31:37
  TRACK 33 AUDIO
    INDEX 00 42:01:38
    INDEX 01 42:03:38
  TRACK 34 AUDIO
    INDEX 00 42:33:39
    INDEX 01 42:35:39
  TRACK 35 AUDIO
    INDEX 00 43:05:40
    INDEX 01 43:07:40
  TRACK 36 AUDIO
    INDEX 00 43:37:41
    INDEX 01 43:39:41
  TRACK 37 AUDIO
    INDEX 00 43:45:43
    INDEX 01 43:47:43
  TRACK 38 AUDIO
    INDEX 00 43:52:58
    INDEX 01 43:54:58
  TRACK 39 AUDIO
    INDEX 00 44:59:24
    INDEX 01 45:01:24
  TRACK 40 AUDIO
    INDEX 00 45:35:30
    INDEX 01 45:37:30
  TRACK 41 AUDIO
    INDEX 00 46:11:07
    INDEX 01 46:13:07
  TRACK 42 AUDIO
    INDEX 00 46:19:07
    INDEX 01 46:21:07
  TRACK 43 AUDIO
    INDEX 00 46:52:48
    INDEX 01 46:54:48
  TRACK 44 AUDIO
    INDEX 00 47:18:06
    INDEX 01 47:20:06
  TRACK 45 AUDIO
    INDEX 00 47:50:00
    INDEX 01 47:52:00
  TRACK 46 AUDIO
    INDEX 00 47:56:58
    INDEX 01 47:58:58
  TRACK 47 AUDIO
    INDEX 00 48:23:57
    INDEX 01 48:25:57
  TRACK 48 AUDIO
    INDEX 00 48:40:57
    INDEX 01 48:42:57
  TRACK 49 AUDIO
    INDEX 00 49:38:58
    INDEX 01 49:40:58
  TRACK 50 AUDIO
    INDEX 00 50:25:58
    INDEX 01 50:27:58
  TRACK 51 AUDIO
    INDEX 00 50:52:59
    INDEX 01 50:54:59
  TRACK 52 AUDIO
    INDEX 00 51:30:59
    INDEX 01 51:32:59
  TRACK 53 AUDIO
    INDEX 00 52:08:60
    INDEX 01 52:10:60
  TRACK 54 AUDIO
    INDEX 00 52:55:61
    INDEX 01 52:57:61
  TRACK 55 AUDIO
    INDEX 00 53:37:62
    INDEX 01 53:39:62
  TRACK 56 AUDIO
    INDEX 00 54:46:63
    INDEX 01 54:48:63
  TRACK 57 AUDIO
    INDEX 00 56:29:32
    INDEX 01 56:31:32
  TRACK 58 AUDIO
    INDEX 00 57:05:29
    INDEX 01 57:07:29
  TRACK 59 AUDIO
    INDEX 00 57:50:73
    INDEX 01 57:52:73
  TRACK 60 AUDIO
    INDEX 00 58:36:20
    INDEX 01 58:38:20
  TRACK 61 AUDIO
    INDEX 00 59:02:04
    INDEX 01 59:04:04
  TRACK 62 AUDIO
    INDEX 00 59:57:17
    INDEX 01 59:59:17
  TRACK 63 AUDIO
    INDEX 00 60:23:01
    INDEX 01 60:25:01
  TRACK 64 AUDIO
    INDEX 00 61:15:09
    INDEX 01 61:17:09
  TRACK 65 AUDIO
    INDEX 00 61:29:01
    INDEX 01 61:31:01
  TRACK 66 AUDIO
    INDEX 00 62:28:19
    INDEX 01 62:30:19
  TRACK 67 AUDIO
    INDEX 00 62:54:03
    INDEX 01 62:56:03
  TRACK 68 AUDIO
    INDEX 00 64:04:05
    INDEX 01 64:06:05
  TRACK 69 AUDIO
    INDEX 00 64:29:64
    INDEX 01 64:31:64
  TRACK 70 AUDIO
    INDEX 00 65:27:17
    INDEX 01 65:29:17
  TRACK 71 AUDIO
    INDEX 00 65:53:01
    INDEX 01 65:55:01
  TRACK 72 MODE2/2352
    INDEX 00 66:48:26
    INDEX 01 66:51:26
REM LEADOUT 70:54:39
